<svg width="18" height="18" viewBox="0 0 18 18" fill="none" xmlns="http://www.w3.org/2000/svg">
<path d="M6.75317 0.605103H1.38369C0.692846 0.605103 0.130859 1.16709 0.130859 1.85794V5.07962C0.130859 5.7706 0.692846 6.33259 1.38369 6.33259H6.75317C7.44415 6.33259 8.00614 5.7706 8.00614 5.07962V1.85794C8.00614 1.16709 7.44415 0.605103 6.75317 0.605103Z" fill="white"/>
<path d="M6.75317 7.76437H1.38369C0.692846 7.76437 0.130859 8.32636 0.130859 9.01734V16.5346C0.130859 17.2255 0.692846 17.7874 1.38369 17.7874H6.75317C7.44415 17.7874 8.00614 17.2255 8.00614 16.5346V9.01734C8.00614 8.32636 7.44415 7.76437 6.75317 7.76437Z" fill="white"/>
<path d="M16.0603 12.06H10.6908C9.99985 12.06 9.43787 12.622 9.43787 13.3129V16.5346C9.43787 17.2255 9.99985 17.7875 10.6908 17.7875H16.0603C16.7512 17.7875 17.3131 17.2255 17.3131 16.5346V13.3129C17.3131 12.622 16.7512 12.06 16.0603 12.06Z" fill="white"/>
<path d="M16.0603 0.605103H10.6908C9.99985 0.605103 9.43787 1.16709 9.43787 1.85794V9.37521C9.43787 10.0662 9.99985 10.6282 10.6908 10.6282H16.0603C16.7512 10.6282 17.3131 10.0662 17.3131 9.37521V1.85794C17.3131 1.16709 16.7512 0.605103 16.0603 0.605103Z" fill="white"/>
</svg>
