<svg width="22" height="6" viewBox="0 0 22 6" fill="none" xmlns="http://www.w3.org/2000/svg">
<path d="M11.2181 0.427338C9.91357 0.427338 8.85193 1.48898 8.85193 2.79354C8.85193 4.09811 9.91357 5.15975 11.2181 5.15975C12.5227 5.15975 13.5843 4.09811 13.5843 2.79354C13.5843 1.48898 12.5227 0.427338 11.2181 0.427338Z" fill="#7A7A7A"/>
<path d="M3.33081 0.427338C2.02624 0.427338 0.9646 1.48898 0.9646 2.79354C0.9646 4.09811 2.02624 5.15975 3.33081 5.15975C4.63538 5.15975 5.69701 4.09811 5.69701 2.79354C5.69701 1.48898 4.63538 0.427338 3.33081 0.427338Z" fill="#7A7A7A"/>
<path d="M19.1055 0.427338C17.8009 0.427338 16.7393 1.48898 16.7393 2.79354C16.7393 4.09811 17.8009 5.15975 19.1055 5.15975C20.41 5.15975 21.4717 4.09811 21.4717 2.79354C21.4717 1.48898 20.41 0.427338 19.1055 0.427338Z" fill="#7A7A7A"/>
</svg>
