<svg fill="#0F550C" version="1.1" id="Capa_1" xmlns="http://www.w3.org/2000/svg" xmlns:xlink="http://www.w3.org/1999/xlink" viewBox="-49 -49 588.00 588.00" xml:space="preserve"><g id="SVGRepo_bgCarrier" stroke-width="0"><rect x="-49" y="-49" width="588.00" height="588.00" rx="294" fill="#ffffff" strokewidth="0"></rect></g><g id="SVGRepo_tracerCarrier" stroke-linecap="round" stroke-linejoin="round"></g><g id="SVGRepo_iconCarrier"> <g id="line_42_"> <path d="M104.246,461.128c0,0,57.911-30.303,86.882-15.802c28.971,14.501,108.595,35.57,156.385,31.62 c47.79-3.951,124.52-67.175,139.005-88.245c14.485-21.07-18.819-23.704-52.123-6.584c-33.304,17.119-140.445,51.373-191.128,0 c0,0,117.277,10.535,121.626,0c4.349-10.535-13.031-27.654-104.246-47.422c-91.215-19.753-156.385,0-156.385,0v126.434H104.246z"></path> <rect y="334.679" width="69.503" height="135.698"></rect> <path d="M221.569,196.96c-4.104-5.543-6.875-12.173-8.361-19.829l-36.397,4.027c2.787,18.865,9.203,33.488,19.248,43.824 c10.03,10.351,23.091,16.537,39.184,18.543v26.154h20.212v-26.873c18.13-2.68,32.278-9.953,42.461-21.851 c10.167-11.867,15.266-26.475,15.266-43.824c0-15.527-4.058-28.251-12.143-38.158c-8.085-9.907-23.29-17.992-45.6-24.224V58.568 c9.019,4.027,14.593,11.683,16.736,22.984l35.28-4.747c-2.404-14.363-7.978-25.847-16.736-34.422 c-8.728-8.575-20.488-13.766-35.28-15.603v-14.21h-20.212v14.225c-15.986,1.623-28.803,7.794-38.419,18.467 c-9.632,10.688-14.424,23.903-14.424,39.598c0,15.527,4.242,28.726,12.755,39.598c8.514,10.887,21.866,19.003,40.088,24.362v60.223 C230.205,206.546,225.658,202.519,221.569,196.96z M255.455,155.005c8.376,2.481,14.378,6.064,18.068,10.703 c3.66,4.64,5.497,10.183,5.497,16.599c0,7.182-2.19,13.429-6.554,18.758c-4.379,5.329-10.045,8.636-17.012,9.984V155.005z M221.707,97.292c-2.971-4.364-4.456-9.08-4.456-14.164c0-5.558,1.623-10.627,4.869-15.236c3.262-4.594,7.626-7.855,13.107-9.769 v49.719C229.195,105.178,224.678,101.641,221.707,97.292z"></path> </g> </g></svg>