<svg width="20" height="21" viewBox="0 0 20 21" fill="none" xmlns="http://www.w3.org/2000/svg">
<path d="M5.62067 4.98176V2.31839C5.62067 1.58292 5.02445 0.98671 4.28898 0.98671H1.62562C0.890148 0.98671 0.293933 1.58292 0.293933 2.31839V4.98176C0.293933 5.71723 0.890148 6.31344 1.62562 6.31344H4.28898C5.02445 6.31344 5.62067 5.71723 5.62067 4.98176Z" fill="white"/>
<path d="M5.62067 12.1729V9.50949C5.62067 8.77403 5.02445 8.17781 4.28898 8.17781H1.62562C0.890148 8.17781 0.293933 8.77403 0.293933 9.50949V12.1729C0.293933 12.9083 0.890148 13.5045 1.62562 13.5045H4.28898C5.02445 13.5045 5.62067 12.9083 5.62067 12.1729Z" fill="white"/>
<path d="M5.62067 19.3639V16.7006C5.62067 15.9651 5.02445 15.3689 4.28898 15.3689H1.62562C0.890148 15.3689 0.293933 15.9651 0.293933 16.7006V19.3639C0.293933 20.0994 0.890148 20.6956 1.62562 20.6956H4.28898C5.02445 20.6956 5.62067 20.0994 5.62067 19.3639Z" fill="white"/>
<path d="M9.18962 4.98177C8.83644 4.98177 8.49772 4.84147 8.24798 4.59173C7.99824 4.34199 7.85794 4.00327 7.85794 3.65009C7.85794 3.2969 7.99824 2.95819 8.24798 2.70845C8.49772 2.45871 8.83644 2.31841 9.18962 2.31841H17.819C18.1722 2.31841 18.5109 2.45871 18.7607 2.70845C19.0104 2.95819 19.1507 3.2969 19.1507 3.65009C19.1507 4.00327 19.0104 4.34199 18.7607 4.59173C18.5109 4.84147 18.1722 4.98177 17.819 4.98177H9.18962Z" fill="white"/>
<path d="M9.18962 12.1728C8.83644 12.1728 8.49772 12.0325 8.24798 11.7828C7.99824 11.5331 7.85794 11.1943 7.85794 10.8412C7.85794 10.488 7.99824 10.1493 8.24798 9.89952C8.49772 9.64978 8.83644 9.50948 9.18962 9.50948H17.819C18.1722 9.50948 18.5109 9.64978 18.7607 9.89952C19.0104 10.1493 19.1507 10.488 19.1507 10.8412C19.1507 11.1943 19.0104 11.5331 18.7607 11.7828C18.5109 12.0325 18.1722 12.1728 17.819 12.1728H9.18962Z" fill="white"/>
<path d="M9.18962 19.3639C8.83644 19.3639 8.49772 19.2236 8.24798 18.9739C7.99824 18.7242 7.85794 18.3854 7.85794 18.0323C7.85794 17.6791 7.99824 17.3404 8.24798 17.0906C8.49772 16.8409 8.83644 16.7006 9.18962 16.7006H17.819C18.1722 16.7006 18.5109 16.8409 18.7607 17.0906C19.0104 17.3404 19.1507 17.6791 19.1507 18.0323C19.1507 18.3854 19.0104 18.7242 18.7607 18.9739C18.5109 19.2236 18.1722 19.3639 17.819 19.3639H9.18962Z" fill="white"/>
</svg>
