<svg width="24" height="20" viewBox="0 0 24 20" fill="none" xmlns="http://www.w3.org/2000/svg">
<g id="Group">
<path id="Vector" d="M12.0376 4.44043L3.52275 11.4601C3.52275 11.47 3.52026 11.4846 3.51528 11.5044C3.51041 11.5241 3.50781 11.5384 3.50781 11.5486V18.6567C3.50781 18.9134 3.60164 19.1358 3.78925 19.3231C3.9768 19.5105 4.1989 19.6048 4.4556 19.6048H10.1419V13.9181H13.9333V19.605H19.6195C19.8762 19.605 20.0986 19.5109 20.2859 19.3231C20.4735 19.136 20.5676 18.9134 20.5676 18.6567V11.5486C20.5676 11.5092 20.5622 11.4794 20.5527 11.4601L12.0376 4.44043Z" fill="white"/>
<path id="Vector_2" d="M23.8116 9.86063L20.5687 7.16543V1.12341C20.5687 0.985281 20.5243 0.871689 20.4352 0.782786C20.3468 0.693987 20.2332 0.649588 20.0948 0.649588H17.2516C17.1133 0.649588 16.9998 0.693987 16.9108 0.782786C16.8221 0.871689 16.7777 0.985333 16.7777 1.12341V4.01109L13.1645 0.990001C12.8489 0.733303 12.4737 0.60498 12.0393 0.60498C11.6049 0.60498 11.2297 0.733303 10.9138 0.990001L0.266117 9.86063C0.167412 9.93947 0.113314 10.0456 0.103251 10.1789C0.0932407 10.3121 0.127733 10.4284 0.206832 10.5271L1.12495 11.623C1.20405 11.7118 1.30758 11.7661 1.43595 11.7859C1.55447 11.7959 1.67299 11.7612 1.7915 11.6823L12.039 3.13736L22.2865 11.6823C22.3657 11.7511 22.4692 11.7855 22.5975 11.7855H22.642C22.7702 11.766 22.8735 11.7114 22.953 11.6228L23.8713 10.527C23.9502 10.4282 23.9848 10.312 23.9745 10.1787C23.9644 10.0457 23.9101 9.93962 23.8116 9.86063Z" fill="white"/>
</g>
</svg>
