<svg width="10" height="16" viewBox="0 0 10 16" fill="none" xmlns="http://www.w3.org/2000/svg">
<path d="M9.29882 8.12331C8.83551 7.24614 8.11266 6.49237 7.26059 5.96942L7.00327 3.98059C7.73891 3.40571 8.22123 2.52054 8.22123 1.51677C8.22123 0.654349 6.59442 0.261444 5.08285 0.261444C3.57128 0.261444 1.94446 0.654349 1.94446 1.5168C1.94446 2.52063 2.42684 3.40583 3.16257 3.98071L2.90448 5.97001C2.0528 6.49249 1.33022 7.24579 0.866873 8.12331C0.668891 8.49753 0.634555 8.95296 0.771869 9.37222C0.897531 9.75563 1.15865 10.0667 1.48751 10.2261C2.47415 10.7045 3.59985 10.8707 4.5125 10.9159L4.76962 15.0314C4.78003 15.1969 4.91702 15.3256 5.08285 15.3256C5.24864 15.3256 5.38566 15.1969 5.39608 15.0314L5.65323 10.9159C6.56585 10.8707 7.69151 10.7045 8.67789 10.2264C9.00707 10.0667 9.26819 9.75563 9.39383 9.37222C9.53111 8.95296 9.4968 8.49753 9.29882 8.12331Z" fill="#7A7A7A"/>
</svg>
