<svg width="20" height="20" viewBox="0 0 20 20" fill="none" xmlns="http://www.w3.org/2000/svg">
<path d="M8.1055 9.15819C8.36985 9.26884 8.64405 9.3543 8.92446 9.41345V19.5388C8.75248 19.4944 8.58511 19.4339 8.42457 19.3579L2.04308 16.5182C1.47962 16.2674 1.00093 15.8586 0.664942 15.3414C0.328948 14.8242 0.150052 14.2207 0.149902 13.604V6.52051C0.150748 6.23643 0.190104 5.95378 0.266896 5.68028L8.1055 9.15819ZM12.7214 6.7864L4.05325 2.71288L2.04308 3.60629C1.68055 3.76564 1.35198 3.99311 1.07522 4.27635L8.74365 7.69045C9.05174 7.82718 9.38507 7.89782 9.72214 7.89782C10.0592 7.89782 10.3925 7.82718 10.7006 7.69045L12.7214 6.7864ZM18.3691 4.27635C18.0923 3.99311 17.7637 3.76564 17.4012 3.60629L11.0197 0.766526C10.6119 0.582485 10.1696 0.487305 9.72214 0.487305C9.27471 0.487305 8.8324 0.582485 8.42457 0.766526L5.98897 1.85138L14.6572 5.9249L18.3691 4.27635ZM19.1774 5.68028L15.4442 7.33946V9.94524C15.4442 10.1568 15.3602 10.3597 15.2106 10.5093C15.061 10.6589 14.8581 10.7429 14.6465 10.7429C14.435 10.7429 14.2321 10.6589 14.0825 10.5093C13.9329 10.3597 13.8488 10.1568 13.8488 9.94524V8.04143L11.3388 9.15819C11.0727 9.26405 10.7989 9.34939 10.5198 9.41345V19.5388C10.6918 19.4944 10.8592 19.4339 11.0197 19.3579L17.4012 16.5182C17.9647 16.2674 18.4433 15.8586 18.7793 15.3414C19.1153 14.8242 19.2942 14.2207 19.2944 13.604V6.52051C19.2935 6.23643 19.2542 5.95378 19.1774 5.68028Z" fill="white"/>
</svg>
