<svg width="754" height="189" viewBox="0 0 754 189" fill="none" xmlns="http://www.w3.org/2000/svg">
<path d="M6.05641 148.839C4.52583 148.839 3.27355 148.352 2.29954 147.378C1.32554 146.404 0.83854 145.151 0.83854 143.621V7.95637C0.83854 6.42579 1.32554 5.1735 2.29954 4.1995C3.27355 3.2255 4.52583 2.73849 6.05641 2.73849H62.8268C80.7762 2.73849 94.8993 6.91279 105.196 15.2614C115.632 23.4708 120.849 35.1588 120.849 50.3254C120.849 60.2046 118.414 68.5532 113.544 75.3712C108.814 82.1892 102.552 87.3375 94.7601 90.8161L123.563 142.16C123.98 142.995 124.189 143.76 124.189 144.456C124.189 145.569 123.702 146.612 122.728 147.586C121.893 148.421 120.849 148.839 119.597 148.839H92.0468C89.4031 148.839 87.4551 148.213 86.2028 146.96C84.9505 145.569 84.0461 144.317 83.4895 143.203L59.6961 97.2862H38.1985V143.621C38.1985 145.151 37.7115 146.404 36.7375 147.378C35.7635 148.352 34.5112 148.839 32.9806 148.839H6.05641ZM38.1985 67.8575H62.4094C68.9491 67.8575 73.8191 66.2573 77.0194 63.057C80.3588 59.8567 82.0285 55.4737 82.0285 49.908C82.0285 44.4814 80.4284 40.0984 77.2281 36.759C74.167 33.4195 69.2274 31.7498 62.4094 31.7498H38.1985V67.8575ZM191.514 150.926C175.095 150.926 162.016 146.473 152.276 137.568C142.536 128.663 137.457 115.444 137.04 97.9124C137.04 96.9384 137.04 95.6861 137.04 94.1555C137.04 92.6249 137.04 91.4422 137.04 90.6074C137.457 79.6151 139.892 70.2229 144.345 62.4309C148.936 54.4997 155.198 48.5166 163.129 44.4814C171.199 40.3071 180.591 38.22 191.305 38.22C203.55 38.22 213.638 40.655 221.569 45.525C229.639 50.395 235.692 57.0043 239.727 65.3529C243.762 73.7015 245.78 83.2328 245.78 93.9468V98.9559C245.78 100.487 245.223 101.739 244.11 102.713C243.136 103.687 241.953 104.174 240.562 104.174H173.773C173.773 104.313 173.773 104.522 173.773 104.8C173.773 105.078 173.773 105.357 173.773 105.635C173.912 109.67 174.608 113.357 175.86 116.697C177.113 120.036 179.061 122.68 181.704 124.628C184.348 126.576 187.548 127.55 191.305 127.55C194.088 127.55 196.384 127.132 198.193 126.298C200.141 125.324 201.741 124.28 202.993 123.167C204.246 121.915 205.22 120.871 205.915 120.036C207.168 118.645 208.142 117.81 208.837 117.532C209.672 117.114 210.924 116.905 212.594 116.905H238.475C239.866 116.905 240.979 117.323 241.814 118.158C242.788 118.853 243.206 119.897 243.067 121.288C242.927 123.654 241.745 126.506 239.518 129.846C237.292 133.185 234.022 136.525 229.709 139.864C225.535 143.064 220.247 145.708 213.846 147.795C207.446 149.882 200.002 150.926 191.514 150.926ZM173.773 83.5111H209.046V83.0936C209.046 78.6411 208.35 74.745 206.959 71.4056C205.707 68.0662 203.689 65.492 200.906 63.6832C198.262 61.8743 195.062 60.9699 191.305 60.9699C187.548 60.9699 184.348 61.8743 181.704 63.6832C179.2 65.492 177.252 68.0662 175.86 71.4056C174.469 74.745 173.773 78.6411 173.773 83.0936V83.5111ZM299.883 148.839C297.795 148.839 296.265 148.352 295.291 147.378C294.317 146.265 293.482 145.012 292.786 143.621L253.339 46.7773C253.061 46.2207 252.922 45.5946 252.922 44.8989C252.922 43.6466 253.339 42.603 254.174 41.7681C255.148 40.7941 256.331 40.3071 257.722 40.3071H281.307C283.116 40.3071 284.507 40.7941 285.481 41.7681C286.455 42.7421 287.081 43.7161 287.36 44.6901L310.944 108.766L334.738 44.6901C335.016 43.7161 335.642 42.7421 336.616 41.7681C337.59 40.7941 338.982 40.3071 340.791 40.3071H364.375C365.628 40.3071 366.741 40.7941 367.715 41.7681C368.689 42.603 369.176 43.6466 369.176 44.8989C369.176 45.5946 369.037 46.2207 368.758 46.7773L329.311 143.621C328.755 145.012 327.92 146.265 326.807 147.378C325.833 148.352 324.233 148.839 322.006 148.839H299.883ZM394.791 148.839C393.399 148.839 392.286 148.421 391.451 147.586C390.616 146.752 390.199 145.638 390.199 144.247V5.24307C390.199 3.85165 390.616 2.7385 391.451 1.90363C392.286 1.06878 393.399 0.65135 394.791 0.65135H398.339C399.73 0.65135 400.843 1.06878 401.678 1.90363C402.513 2.7385 402.931 3.85165 402.931 5.24307V144.247C402.931 145.638 402.513 146.752 401.678 147.586C400.843 148.421 399.73 148.839 398.339 148.839H394.791ZM455.236 188.495C454.123 188.495 453.149 188.077 452.314 187.242C451.48 186.407 451.062 185.433 451.062 184.32C451.062 183.764 451.132 183.138 451.271 182.442C451.549 181.885 451.897 181.12 452.314 180.146L468.385 142.577L428.521 48.6557C427.686 46.5686 427.269 45.1771 427.269 44.4814C427.269 43.3683 427.686 42.3943 428.521 41.5594C429.356 40.7246 430.33 40.3071 431.443 40.3071H435.826C437.217 40.3071 438.261 40.655 438.957 41.3507C439.791 41.9073 440.348 42.603 440.626 43.4379L475.69 126.089L511.589 43.4379C512.007 42.603 512.563 41.9073 513.259 41.3507C513.955 40.655 514.998 40.3071 516.39 40.3071H520.564C521.677 40.3071 522.651 40.7246 523.486 41.5594C524.321 42.3943 524.738 43.3683 524.738 44.4814C524.738 45.1771 524.321 46.5686 523.486 48.6557L464.211 185.364C463.794 186.199 463.237 186.894 462.541 187.451C461.846 188.147 460.802 188.495 459.411 188.495H455.236ZM584.478 148.839C577.243 148.839 571.538 147.308 567.363 144.247C563.189 141.186 560.267 137.012 558.597 131.724C556.928 126.437 556.093 120.523 556.093 113.983V52.4126H539.813C538.422 52.4126 537.308 51.9952 536.474 51.1603C535.639 50.3254 535.221 49.2123 535.221 47.8209V44.8989C535.221 43.5074 535.639 42.3943 536.474 41.5594C537.308 40.7246 538.422 40.3071 539.813 40.3071H556.093V5.24307C556.093 3.85165 556.51 2.7385 557.345 1.90363C558.18 1.06878 559.293 0.65135 560.685 0.65135H564.233C565.624 0.65135 566.737 1.06878 567.572 1.90363C568.407 2.7385 568.824 3.85165 568.824 5.24307V40.3071H594.705C596.096 40.3071 597.21 40.7246 598.044 41.5594C598.879 42.3943 599.297 43.5074 599.297 44.8989V47.8209C599.297 49.2123 598.879 50.3254 598.044 51.1603C597.21 51.9952 596.096 52.4126 594.705 52.4126H568.824V113.149C568.824 120.523 570.007 126.298 572.373 130.472C574.877 134.646 579.26 136.733 585.522 136.733H596.792C598.184 136.733 599.297 137.151 600.132 137.986C600.966 138.82 601.384 139.934 601.384 141.325V144.247C601.384 145.638 600.966 146.752 600.132 147.586C599.297 148.421 598.184 148.839 596.792 148.839H584.478ZM627.552 148.839C626.16 148.839 625.047 148.421 624.212 147.586C623.377 146.752 622.96 145.638 622.96 144.247V44.8989C622.96 43.5074 623.377 42.3943 624.212 41.5594C625.047 40.7246 626.16 40.3071 627.552 40.3071H631.1C632.491 40.3071 633.604 40.7246 634.439 41.5594C635.274 42.3943 635.691 43.5074 635.691 44.8989V144.247C635.691 145.638 635.274 146.752 634.439 147.586C633.604 148.421 632.491 148.839 631.1 148.839H627.552ZM625.256 17.9747C623.864 17.9747 622.751 17.5572 621.916 16.7224C621.081 15.8875 620.664 14.7744 620.664 13.3829V5.45179C620.664 4.06036 621.081 2.94721 621.916 2.11236C622.751 1.13835 623.864 0.65135 625.256 0.65135H633.187C634.578 0.65135 635.691 1.13835 636.526 2.11236C637.5 2.94721 637.987 4.06036 637.987 5.45179V13.3829C637.987 14.7744 637.5 15.8875 636.526 16.7224C635.691 17.5572 634.578 17.9747 633.187 17.9747H625.256ZM710.548 150.926C700.808 150.926 692.529 149.047 685.711 145.291C678.893 141.395 673.675 135.829 670.058 128.593C666.579 121.358 664.701 112.801 664.422 102.922C664.283 100.834 664.214 98.0515 664.214 94.5729C664.214 91.0944 664.283 88.3115 664.422 86.2244C664.701 76.2061 666.579 67.6488 670.058 60.5525C673.675 53.317 678.893 47.8209 685.711 44.064C692.529 40.168 700.808 38.22 710.548 38.22C717.923 38.22 724.254 39.2636 729.541 41.3507C734.968 43.2987 739.42 45.9424 742.899 49.2819C746.378 52.4822 749.021 56.0303 750.83 59.9263C752.639 63.8223 753.613 67.6487 753.752 71.4056C753.891 72.797 753.474 73.9102 752.5 74.745C751.526 75.5799 750.413 75.9973 749.16 75.9973H746.238C744.847 75.9973 743.803 75.7191 743.108 75.1625C742.551 74.4668 741.925 73.284 741.229 71.6143C738.307 63.6832 734.272 58.187 729.124 55.1259C724.115 51.9256 717.923 50.3254 710.548 50.3254C701.086 50.3254 693.225 53.2474 686.963 59.0915C680.841 64.7963 677.571 74.1885 677.154 87.2679C676.876 92.1379 676.876 97.0079 677.154 101.878C677.571 114.957 680.841 124.419 686.963 130.263C693.225 135.968 701.086 138.82 710.548 138.82C717.923 138.82 724.115 137.29 729.124 134.229C734.272 131.028 738.307 125.463 741.229 117.532C741.925 115.862 742.551 114.749 743.108 114.192C743.803 113.496 744.847 113.149 746.238 113.149H749.16C750.413 113.149 751.526 113.566 752.5 114.401C753.474 115.236 753.891 116.349 753.752 117.74C753.613 120.801 752.987 123.863 751.874 126.924C750.761 129.985 749.021 132.976 746.656 135.898C744.43 138.82 741.647 141.395 738.307 143.621C734.968 145.847 730.933 147.586 726.202 148.839C721.61 150.23 716.392 150.926 710.548 150.926Z" fill="white"/>
</svg>
