<svg width="21" height="20" viewBox="0 0 21 20" fill="none" xmlns="http://www.w3.org/2000/svg">
<path d="M19.7293 7.27233C19.3314 7.21454 18.9517 7.06773 18.6184 6.84285C18.2851 6.61796 18.0069 6.32079 17.8044 5.97346C17.6019 5.62613 17.4804 5.2376 17.4488 4.83678C17.4173 4.43597 17.4766 4.03322 17.6223 3.6585C17.715 3.41353 17.7286 3.14571 17.6614 2.89259C17.5941 2.63947 17.4493 2.41375 17.2473 2.24706C16.3555 1.49816 15.3403 0.909839 14.2472 0.508334C13.9982 0.415863 13.7265 0.404309 13.4706 0.475319C13.2147 0.546329 12.9878 0.69628 12.8221 0.903809C12.5727 1.22268 12.254 1.48058 11.8901 1.65795C11.5263 1.83532 11.1268 1.9275 10.722 1.9275C10.3172 1.9275 9.91768 1.83532 9.55381 1.65795C9.18994 1.48058 8.87123 1.22268 8.62186 0.903809C8.45618 0.69628 8.22924 0.546329 7.97336 0.475319C7.71748 0.404309 7.44571 0.415863 7.19678 0.508334C6.18741 0.879018 5.24367 1.40843 4.40118 2.0766C4.18881 2.24472 4.03585 2.47642 3.96468 2.73776C3.89352 2.9991 3.9079 3.27637 4.00571 3.52895C4.16305 3.91358 4.22805 4.32972 4.19551 4.74401C4.16298 5.1583 4.03379 5.5592 3.81833 5.91454C3.60287 6.26989 3.30713 6.56979 2.95483 6.79019C2.60253 7.0106 2.20347 7.14537 1.78968 7.18369C1.52103 7.21241 1.26871 7.32663 1.06985 7.50953C0.870997 7.69243 0.736118 7.93434 0.685075 8.19965C0.558112 8.82812 0.494155 9.46768 0.494155 10.1088C0.493222 10.6456 0.536553 11.1816 0.623708 11.7112C0.667084 11.985 0.799453 12.2369 1.00035 12.4279C1.20125 12.619 1.45948 12.7385 1.73513 12.7681C2.15801 12.8078 2.56524 12.9482 2.92272 13.1775C3.2802 13.4069 3.57754 13.7186 3.78985 14.0864C4.00216 14.4543 4.12326 14.8677 4.14302 15.292C4.16278 15.7162 4.08063 16.1391 3.90343 16.5251C3.78746 16.7762 3.7587 17.0588 3.8217 17.3281C3.8847 17.5974 4.03586 17.838 4.25117 18.0115C5.13766 18.7468 6.14303 19.3256 7.22406 19.723C7.3623 19.7709 7.50734 19.7962 7.65363 19.798C7.85421 19.7976 8.05176 19.749 8.22972 19.6565C8.40768 19.564 8.56086 19.4301 8.67641 19.2661C8.91943 18.9121 9.2452 18.6227 9.62544 18.423C10.0057 18.2234 10.4289 18.1196 10.8583 18.1206C11.2744 18.1212 11.6847 18.2188 12.0564 18.4059C12.4281 18.5929 12.751 18.8641 12.9994 19.198C13.1646 19.4201 13.3986 19.5813 13.665 19.6565C13.9314 19.7317 14.2152 19.7168 14.4722 19.6139C15.4606 19.2161 16.3809 18.6662 17.1996 17.9843C17.4052 17.8142 17.5517 17.5833 17.6178 17.3248C17.684 17.0663 17.6665 16.7935 17.5678 16.5455C17.4074 16.1659 17.3375 15.7541 17.3635 15.3428C17.3896 14.9315 17.5109 14.5318 17.7178 14.1754C17.9248 13.819 18.2118 13.5156 18.5561 13.2891C18.9005 13.0626 19.2928 12.9192 19.702 12.8704C19.9674 12.8337 20.2142 12.7134 20.4066 12.5271C20.5991 12.3408 20.7272 12.098 20.7725 11.8339C20.882 11.2652 20.9413 10.688 20.9498 10.1088C20.9499 9.498 20.8928 8.88849 20.7793 8.28829C20.7333 8.03007 20.607 7.79293 20.4185 7.61055C20.23 7.42817 19.9889 7.30982 19.7293 7.27233ZM14.1312 10.1088C14.1312 10.7831 13.9313 11.4423 13.5567 12.0029C13.1821 12.5636 12.6496 13.0006 12.0266 13.2586C11.4037 13.5166 10.7182 13.5842 10.0569 13.4526C9.39552 13.3211 8.78805 12.9964 8.31125 12.5196C7.83446 12.0428 7.50976 11.4353 7.37821 10.774C7.24666 10.1126 7.31418 9.42714 7.57222 8.80417C7.83025 8.18121 8.26723 7.64875 8.82788 7.27414C9.38853 6.89952 10.0477 6.69957 10.722 6.69957C11.6262 6.69957 12.4933 7.05876 13.1327 7.69812C13.7721 8.33749 14.1312 9.20465 14.1312 10.1088Z" fill="white"/>
</svg>
