<svg width="22" height="22" viewBox="0 0 22 22" fill="none" xmlns="http://www.w3.org/2000/svg">
<path d="M8.50363 9.85546C11.0549 9.85546 13.1232 7.78721 13.1232 5.2359C13.1232 2.68458 11.0549 0.616333 8.50363 0.616333C5.95231 0.616333 3.88406 2.68458 3.88406 5.2359C3.88406 7.78721 5.95231 9.85546 8.50363 9.85546Z" fill="white"/>
<path d="M10.8449 19.8337C10.3635 19.0003 10.4596 17.9739 11.0324 17.2467C10.4596 16.5196 10.3635 15.4941 10.8449 14.6598L11.5923 13.3663C12.0035 12.654 12.7703 12.2114 13.5935 12.2114C13.7062 12.2114 13.8171 12.2197 13.9271 12.2354C13.9576 12.1597 13.9964 12.0885 14.0342 12.0165C13.5353 11.8197 12.9967 11.7033 12.4303 11.7033H4.57706C2.15734 11.7033 0.188477 13.6721 0.188477 16.0918V19.3255C0.188477 19.708 0.498911 20.0185 0.881411 20.0185H10.9511L10.8449 19.8337Z" fill="white"/>
<path d="M20.2402 17.6801C20.2587 17.5369 20.2836 17.3946 20.2836 17.2468C20.2836 17.098 20.2578 16.9567 20.2402 16.8135L21.0727 16.1834C21.2584 16.0429 21.3101 15.7861 21.1937 15.5838L20.4462 14.2903C20.3298 14.0889 20.0813 14.0048 19.8669 14.0953L18.9088 14.4991C18.6751 14.3208 18.4266 14.1637 18.1522 14.0491L18.0247 13.0319C17.9951 12.8009 17.7992 12.6272 17.5664 12.6272H16.0724C15.8396 12.6272 15.6428 12.8009 15.6142 13.0319L15.4867 14.0491C15.2123 14.1637 14.9628 14.3217 14.73 14.4991L13.7719 14.0953C13.5575 14.0048 13.309 14.0879 13.1926 14.2903L12.4452 15.5838C12.3287 15.7852 12.3805 16.042 12.5662 16.1834L13.3986 16.8135C13.3802 16.9567 13.3552 17.099 13.3552 17.2468C13.3552 17.3955 13.3811 17.5369 13.3986 17.6801L12.5662 18.3102C12.3805 18.4507 12.3287 18.7075 12.4452 18.9098L13.1926 20.2042C13.309 20.4057 13.5575 20.4897 13.7719 20.3992L14.73 19.9945C14.9637 20.1728 15.2123 20.3299 15.4867 20.4445L15.6142 21.4617C15.6428 21.6927 15.8387 21.8664 16.0715 21.8664H17.5655C17.7983 21.8664 17.9951 21.6927 18.0237 21.4617L18.1512 20.4445C18.4256 20.3299 18.6751 20.1719 18.9079 19.9945L19.866 20.3983C20.0804 20.4888 20.3289 20.4057 20.4453 20.2033L21.1928 18.9089C21.3092 18.7075 21.2574 18.4507 21.0717 18.3093L20.2402 17.6801ZM16.819 19.0946C15.798 19.0946 14.9711 18.2677 14.9711 17.2468C14.9711 16.2259 15.798 15.399 16.819 15.399C17.8399 15.399 18.6668 16.2259 18.6668 17.2468C18.6668 18.2677 17.8399 19.0946 16.819 19.0946Z" fill="white"/>
</svg>