<svg width="19" height="20" viewBox="0 0 19 20" fill="none" xmlns="http://www.w3.org/2000/svg">
<path d="M16.6082 4.96877H15.1743V2.81801C15.1743 2.24759 14.9477 1.70053 14.5444 1.29718C14.141 0.893835 13.594 0.667236 13.0235 0.667236H2.2697C1.69928 0.667236 1.15222 0.893835 0.748873 1.29718C0.345525 1.70053 0.118927 2.24759 0.118927 2.81801V13.1489C0.572238 12.9554 1.05992 12.8555 1.55277 12.8549C2.30512 12.8549 3.0384 13.0916 3.64873 13.5316C4.25907 13.9715 4.71552 14.5922 4.95344 15.306C5.19135 16.0197 5.19866 16.7902 4.97434 17.5084C4.75001 18.2265 4.30542 18.8558 3.70354 19.3072H16.2497C16.9152 19.3072 17.5534 19.0429 18.024 18.5723C18.4946 18.1017 18.7589 17.4635 18.7589 16.798V7.11954C18.7589 6.54912 18.5323 6.00207 18.129 5.59872C17.7256 5.19537 17.1786 4.96877 16.6082 4.96877ZM11.5897 9.27031H3.70354C3.5134 9.27031 3.33105 9.19478 3.1966 9.06033C3.06215 8.92588 2.98662 8.74353 2.98662 8.55339C2.98662 8.36325 3.06215 8.1809 3.1966 8.04645C3.33105 7.912 3.5134 7.83647 3.70354 7.83647H11.5897C11.7798 7.83647 11.9622 7.912 12.0966 8.04645C12.2311 8.1809 12.3066 8.36325 12.3066 8.55339C12.3066 8.74353 12.2311 8.92588 12.0966 9.06033C11.9622 9.19478 11.7798 9.27031 11.5897 9.27031ZM11.5897 6.40262H5.85431C5.66417 6.40262 5.48182 6.32709 5.34737 6.19264C5.21292 6.05819 5.13739 5.87584 5.13739 5.6857C5.13739 5.49556 5.21292 5.31321 5.34737 5.17876C5.48182 5.04431 5.66417 4.96877 5.85431 4.96877H11.5897C11.7798 4.96877 11.9622 5.04431 12.0966 5.17876C12.2311 5.31321 12.3066 5.49556 12.3066 5.6857C12.3066 5.87584 12.2311 6.05819 12.0966 6.19264C11.9622 6.32709 11.7798 6.40262 11.5897 6.40262ZM17.3251 16.798C17.3251 17.0832 17.2118 17.3567 17.0101 17.5584C16.8084 17.7601 16.5349 17.8734 16.2497 17.8734C15.9645 17.8734 15.691 17.7601 15.4893 17.5584C15.2876 17.3567 15.1743 17.0832 15.1743 16.798V6.40262H16.6082C16.7983 6.40262 16.9806 6.47815 17.1151 6.6126C17.2495 6.74705 17.3251 6.9294 17.3251 7.11954V16.798Z" fill="white"/>
</svg>
