<svg width="22" height="20" viewBox="0 0 22 20" fill="none" xmlns="http://www.w3.org/2000/svg">
<path d="M18.6297 19.9327H2.81465C2.18548 19.9327 1.58209 19.6828 1.1372 19.2379C0.692317 18.793 0.442383 18.1896 0.442383 17.5605V2.53613C0.442383 1.90696 0.692317 1.30357 1.1372 0.858683C1.58209 0.413795 2.18548 0.163862 2.81465 0.163862H18.6297C19.2589 0.163862 19.8623 0.413795 20.3072 0.858683C20.7521 1.30357 21.002 1.90696 21.002 2.53613V17.5605C21.002 18.1896 20.7521 18.793 20.3072 19.2379C19.8623 19.6828 19.2589 19.9327 18.6297 19.9327ZM4.45546 11.7207C4.3959 11.8655 4.38063 12.0247 4.4116 12.1781C4.44257 12.3316 4.51838 12.4724 4.62943 12.5827L7.0017 14.9549C7.15297 15.0845 7.34755 15.1522 7.54657 15.1445C7.74558 15.1368 7.93437 15.0543 8.0752 14.9135C8.21602 14.7726 8.29853 14.5839 8.30621 14.3848C8.3139 14.1858 8.24621 13.9912 8.11666 13.84L7.09659 12.8159H15.8621C16.0718 12.8159 16.273 12.7326 16.4213 12.5843C16.5695 12.436 16.6529 12.2349 16.6529 12.0252C16.6529 11.8155 16.5695 11.6143 16.4213 11.466C16.273 11.3177 16.0718 11.2344 15.8621 11.2344H5.18691C5.03057 11.2341 4.87765 11.2801 4.74746 11.3667C4.61727 11.4532 4.51566 11.5765 4.45546 11.7207ZM17.2103 7.11855L14.8381 4.74629C14.7672 4.66351 14.68 4.59628 14.5819 4.54882C14.4837 4.50135 14.3769 4.47468 14.268 4.47047C14.1591 4.46627 14.0505 4.48462 13.949 4.52437C13.8475 4.56413 13.7554 4.62443 13.6783 4.70149C13.6013 4.77855 13.541 4.87071 13.5012 4.97219C13.4614 5.07366 13.4431 5.18226 13.4473 5.29116C13.4515 5.40006 13.4782 5.50692 13.5256 5.60502C13.5731 5.70313 13.6403 5.79036 13.7231 5.86125L14.7432 6.88528H5.97767C5.76795 6.88528 5.56682 6.96859 5.41852 7.11689C5.27022 7.26518 5.18691 7.46631 5.18691 7.67603C5.18691 7.88576 5.27022 8.08689 5.41852 8.23518C5.56682 8.38348 5.76795 8.46679 5.97767 8.46679H16.6529C16.8092 8.46712 16.9621 8.42109 17.0923 8.33453C17.2225 8.24797 17.3241 8.12476 17.3843 7.98048C17.4439 7.83572 17.4591 7.67654 17.4282 7.52311C17.3972 7.36967 17.3214 7.22887 17.2103 7.11855Z" fill="white"/>
</svg>
